# xmcd
#
# Track frame offsets: 
#        150
#        14270
#        28540
#        43000
#        60627
#        74330
#        89437
#        104255
#        118465
#        136995
#        153277
#
# Disc length: 2218 seconds
#
# Revision: 4
# Processed by: cddbd v1.5PL3 Copyright (c) Steve Scherf et al.
# Submitted via: ExactAudioCopy v0.95a4
#
DISCID=9308a80b
DTITLE=Terri Clark - Just The Same
DYEAR=1996
DGENRE=Country
TTITLE0=Emotional Girl
TTITLE1=Poor, Poor Pitiful Me
TTITLE2=Just The Same
TTITLE3=Something In The Water
TTITLE4=Neon Flame
TTITLE5=Any Woman
TTITLE6=Twang Thang
TTITLE7=You Do Or You Don't
TTITLE8=Keeper Of The Flame
TTITLE9=Not What I Wanted To Hear
TTITLE10=Hold Your Horses
EXTD=ID3G: 2
EXTT0=
EXTT1=
EXTT2=
EXTT3=
EXTT4=
EXTT5=
EXTT6=
EXTT7=
EXTT8=
EXTT9=
EXTT10=
PLAYORDER=
